<svg width="24" height="24" viewBox="0 0 24 24" fill="none" xmlns="http://www.w3.org/2000/svg">
<g clip-path="url(#clip0_487_44)">
<path d="M2.43758 2.58039H21.6042C22.9274 2.58039 24 3.72966 24 5.14735V21.5759C24 22.9936 22.9274 24.1429 21.6042 24.1429H2.43758C1.1144 24.1429 0.041748 22.9936 0.041748 21.5759V5.14735C0.041748 3.72966 1.1144 2.58039 2.43758 2.58039Z" fill="white"/>
<path d="M19.1849 11.448H3.61206C2.61967 11.448 1.81519 12.31 1.81519 13.3733V15.0418H7.30857C7.62627 15.0418 7.93097 15.177 8.15562 15.4177L9.35353 16.7012C9.89589 17.2823 10.6315 17.6087 11.3985 17.6087C12.1655 17.6087 12.9011 17.2823 13.4435 16.7012L14.6414 15.4177C14.866 15.177 15.1707 15.0418 15.4884 15.0418H20.9818V13.3733C20.9818 12.31 20.1773 11.448 19.1849 11.448Z" fill="white"/>
<path d="M4.23437 0.0134144C3.24199 0.0134144 2.4375 0.875365 2.4375 1.93863V7.71429H21.6041V1.93863C21.6041 0.875365 20.7996 0.0134144 19.8073 0.0134144H4.23437Z" fill="white"/>
<path d="M2.63258 5.14733C1.43605 5.14733 0.466064 6.00928 0.466064 7.07255V10.7946H23.5755V7.07255C23.5755 6.00928 22.6056 5.14733 21.409 5.14733H2.63258Z" fill="white"/>
</g>
<defs>
<clipPath id="clip0_487_44">
<rect width="24" height="24" fill="white"/>
</clipPath>
</defs>
</svg>
