<svg width="24" height="24" viewBox="0 0 24 24" fill="none" xmlns="http://www.w3.org/2000/svg">
<g clip-path="url(#clip0_487_75)">
<path d="M12 22.2857C17.6714 22.2857 22.2857 17.6714 22.2857 12C22.2857 6.32857 17.6714 1.71429 12 1.71429C6.32857 1.71429 1.71428 6.32857 1.71428 12C1.71428 17.6714 6.32857 22.2857 12 22.2857ZM12 0C18.6274 0 24 5.37257 24 12C24 18.6274 18.6274 24 12 24C5.37257 24 0 18.6274 0 12C0 5.37257 5.37257 0 12 0ZM9.14286 15.7143H11.1429V9.40286C11.1429 9.17553 11.2332 8.95751 11.3939 8.79677C11.5547 8.63602 11.7727 8.54571 12 8.54571C12.0491 8.54571 12.096 8.552 12.1429 8.56C12.19 8.55117 12.2378 8.54639 12.2857 8.54571H14C14.1126 8.5457 14.224 8.56785 14.3281 8.61092C14.4321 8.65399 14.5266 8.71712 14.6062 8.79671C14.6858 8.87631 14.7489 8.97081 14.792 9.07481C14.8351 9.17881 14.8573 9.29028 14.8573 9.40286C14.8573 9.51543 14.8351 9.6269 14.792 9.7309C14.7489 9.83491 14.6858 9.9294 14.6062 10.009C14.5266 10.0886 14.4321 10.1517 14.3281 10.1948C14.224 10.2379 14.1126 10.26 14 10.26H12.8571V15.7143H14.8571C15.0845 15.7143 15.3025 15.8046 15.4632 15.9653C15.624 16.1261 15.7143 16.3441 15.7143 16.5714C15.7143 16.7988 15.624 17.0168 15.4632 17.1775C15.3025 17.3383 15.0845 17.4286 14.8571 17.4286H9.14286C8.91553 17.4286 8.69751 17.3383 8.53677 17.1775C8.37602 17.0168 8.28572 16.7988 8.28572 16.5714C8.28572 16.3441 8.37602 16.1261 8.53677 15.9653C8.69751 15.8046 8.91553 15.7143 9.14286 15.7143ZM12 7.844C11.5269 7.844 11.1429 7.49543 11.1429 7.06457C11.1429 6.63486 11.5269 6.28514 12 6.28514C12.4731 6.28514 12.8571 6.63429 12.8571 7.06457C12.8571 7.49543 12.4731 7.844 12 7.844Z" fill="white"/>
</g>
<defs>
<clipPath id="clip0_487_75">
<rect width="24" height="24" fill="white"/>
</clipPath>
</defs>
</svg>
