<svg width="24" height="24" viewBox="0 0 24 24" fill="none" xmlns="http://www.w3.org/2000/svg">
<path fill-rule="evenodd" clip-rule="evenodd" d="M20.8487 4.72731H11.152C10.4167 4.72731 9.81892 4.12949 9.81747 3.39422C9.81747 2.12367 10.8509 1.09094 12.1207 1.09094H19.8786C21.1491 1.09094 22.1818 2.1244 22.1818 3.39422C22.1818 4.12949 21.584 4.72731 20.8487 4.72731ZM1.09155 8.60577C1.09155 6.65595 2.62683 2.90904 4.72792 2.90904C6.82901 2.90904 8.36428 6.65595 8.36428 8.60577C8.36428 10.165 7.43992 11.5039 6.12864 12.0719L6.5461 21.1847C6.5461 22.1432 5.7301 22.909 4.72792 22.909C3.72573 22.909 2.90973 22.1425 2.90973 21.2014L3.32719 12.0719C2.01592 11.5039 1.09155 10.1643 1.09155 8.60577ZM22.0074 6.77313L21.8328 6.56077C21.6263 6.30913 21.4503 6.00877 21.3092 5.66695C21.2503 5.52513 21.1004 5.43422 20.9543 5.44222C20.9244 5.44368 20.8961 5.44731 20.8488 5.45459L11.1339 5.45168C11.123 5.45022 11.0575 5.44295 11.0466 5.44222C10.8859 5.43204 10.7506 5.5244 10.6917 5.66695C10.5506 6.00877 10.3746 6.30986 10.1681 6.56077L9.99354 6.7724C9.41172 7.48004 9.09099 8.36877 9.09099 9.27495V20.7273C9.09099 21.9302 10.0932 22.9091 11.3244 22.9091H20.675C21.9063 22.9091 22.9084 21.9302 22.9084 20.7273V9.27568C22.9099 8.36877 22.5899 7.48004 22.0074 6.77313ZM20.3642 17.0913C20.5649 17.0913 20.7278 16.9284 20.7278 16.7277V10.9095C20.7278 10.7088 20.5649 10.5459 20.3642 10.5459H11.6369C11.4362 10.5459 11.2733 10.7088 11.2733 10.9095V16.7277C11.2733 16.9284 11.4362 17.0913 11.6369 17.0913H20.3642Z" fill="white"/>
</svg>
