<svg width="24" height="24" viewBox="0 0 24 24" fill="none" xmlns="http://www.w3.org/2000/svg">
<g clip-path="url(#clip0_487_73)">
<path d="M12 0C5.3726 0 0 5.3726 0 12C0 18.6274 5.3726 24 12 24C18.6274 24 24 18.6274 24 12C23.993 5.37556 18.6245 0.0070815 12 0ZM12.8572 12C12.8572 12.4734 12.4734 12.8572 12 12.8572H5.14287C4.66947 12.8572 4.28571 12.4734 4.28571 12C4.28571 11.5266 4.66947 11.1429 5.14287 11.1429H11.1429V5.14287C11.1429 4.66947 11.5267 4.28571 12.0001 4.28571C12.4735 4.28571 12.8572 4.66947 12.8572 5.14287V12Z" fill="white"/>
</g>
<defs>
<clipPath id="clip0_487_73">
<rect width="24" height="24" fill="white"/>
</clipPath>
</defs>
</svg>
