<svg width="24" height="24" viewBox="0 0 24 24" fill="none" xmlns="http://www.w3.org/2000/svg">
<g clip-path="url(#clip0_487_48)">
<path d="M20.5258 0.170013H2.87399C1.47445 0.170013 0.352295 1.25383 0.352295 2.57849V18.4652C0.352295 19.7898 1.47445 20.8736 2.87399 20.8736H7.91737L11.6999 24L15.4825 20.8736H20.5258C21.9128 20.8736 23.0475 19.7898 23.0475 18.4652V2.57849C23.0475 1.25383 21.9128 0.170013 20.5258 0.170013Z" fill="#328CFF"/>
<path fill-rule="evenodd" clip-rule="evenodd" d="M20.5258 0.170013H2.87399C1.47445 0.170013 0.352295 1.25383 0.352295 2.57849V18.4652C0.352295 19.7898 1.47445 20.8736 2.87399 20.8736H7.91737L11.6999 24L15.4825 20.8736H20.5258C21.9128 20.8736 23.0475 19.7898 23.0475 18.4652V2.57849C23.0475 1.25383 21.9128 0.170013 20.5258 0.170013ZM12.7315 18.6503H10.6683V16.705H12.7315V18.6503ZM13.9386 11.0345L14.867 10.1397C15.455 9.58527 15.8264 8.80715 15.8264 7.95122C15.8264 5.80165 13.9798 4.0606 11.7 4.0606C9.42013 4.0606 7.57357 5.80165 7.57357 7.95122H9.63677C9.63677 6.8813 10.5652 6.00591 11.7 6.00591C12.8347 6.00591 13.7632 6.8813 13.7632 7.95122C13.7632 8.48617 13.5362 8.9725 13.1545 9.32266L11.8753 10.5482C11.1326 11.2582 10.6684 12.2309 10.6684 13.3008V13.7871H12.7316C12.7316 12.3282 13.1958 11.7446 13.9386 11.0345Z" fill="white"/>
</g>
<defs>
<clipPath id="clip0_487_48">
<rect width="24" height="24" fill="white"/>
</clipPath>
</defs>
</svg>
