<svg width="24" height="24" viewBox="0 0 24 24" fill="none" xmlns="http://www.w3.org/2000/svg">
<path fill-rule="evenodd" clip-rule="evenodd" d="M13.5 7C13.5 9.757 11.257 12 8.5 12C5.743 12 3.5 9.757 3.5 7C3.5 4.243 5.743 2 8.5 2C11.257 2 13.5 4.243 13.5 7ZM0 19C0 16.243 2.243 14 5 14H12C14.757 14 17 16.243 17 19V21C17 21.553 16.553 22 16 22C15.447 22 15 21.553 15 21V19C15 17.346 13.654 16 12 16H5C3.346 16 2 17.346 2 19V21C2 21.553 1.552 22 1 22C0.448 22 0 21.553 0 21V19ZM8.5 4C10.154 4 11.5 5.346 11.5 7C11.5 8.654 10.154 10 8.5 10C6.846 10 5.5 8.654 5.5 7C5.5 5.346 6.846 4 8.5 4ZM22.293 8.293C22.684 7.902 23.316 7.902 23.707 8.293C24.098 8.684 24.098 9.316 23.707 9.707L19.707 13.707C19.512 13.902 19.256 14 19 14C18.744 14 18.488 13.902 18.293 13.707L16.293 11.707C15.902 11.316 15.902 10.684 16.293 10.293C16.684 9.902 17.316 9.902 17.707 10.293L19 11.586L22.293 8.293Z" fill="white"/>
<mask id="mask0_487_36" style="mask-type:luminance" maskUnits="userSpaceOnUse" x="0" y="2" width="25" height="20">
<path fill-rule="evenodd" clip-rule="evenodd" d="M13.5 7C13.5 9.757 11.257 12 8.5 12C5.743 12 3.5 9.757 3.5 7C3.5 4.243 5.743 2 8.5 2C11.257 2 13.5 4.243 13.5 7ZM0 19C0 16.243 2.243 14 5 14H12C14.757 14 17 16.243 17 19V21C17 21.553 16.553 22 16 22C15.447 22 15 21.553 15 21V19C15 17.346 13.654 16 12 16H5C3.346 16 2 17.346 2 19V21C2 21.553 1.552 22 1 22C0.448 22 0 21.553 0 21V19ZM8.5 4C10.154 4 11.5 5.346 11.5 7C11.5 8.654 10.154 10 8.5 10C6.846 10 5.5 8.654 5.5 7C5.5 5.346 6.846 4 8.5 4ZM22.293 8.293C22.684 7.902 23.316 7.902 23.707 8.293C24.098 8.684 24.098 9.316 23.707 9.707L19.707 13.707C19.512 13.902 19.256 14 19 14C18.744 14 18.488 13.902 18.293 13.707L16.293 11.707C15.902 11.316 15.902 10.684 16.293 10.293C16.684 9.902 17.316 9.902 17.707 10.293L19 11.586L22.293 8.293Z" fill="white"/>
</mask>
<g mask="url(#mask0_487_36)">
</svg>
