<svg width="24" height="24" viewBox="0 0 24 24" fill="none" xmlns="http://www.w3.org/2000/svg">
<path fill-rule="evenodd" clip-rule="evenodd" d="M8.50002 4C10.154 4 11.5 5.346 11.5 7C11.5 8.654 10.154 10 8.50002 10C6.84602 10 5.50002 8.654 5.50002 7C5.50002 5.346 6.84602 4 8.50002 4ZM8.50001 12C11.257 12 13.5 9.757 13.5 7C13.5 4.243 11.257 2 8.50001 2C5.74301 2 3.50001 4.243 3.50001 7C3.50001 9.757 5.74301 12 8.50001 12ZM12 14H5C2.243 14 0 16.243 0 19V21C0 21.553 0.448 22 1 22C1.552 22 2 21.553 2 21V19C2 17.346 3.346 16 5 16H12C13.654 16 15 17.346 15 19V21C15 21.553 15.447 22 16 22C16.553 22 17 21.553 17 21V19C17 16.243 14.757 14 12 14ZM21 10H23C23.553 10 24 10.448 24 11C24 11.552 23.553 12 23 12H21V14C21 14.553 20.553 15 20 15C19.447 15 19 14.553 19 14V12H17C16.447 12 16 11.552 16 11C16 10.448 16.447 10 17 10H19V8C19 7.448 19.447 7 20 7C20.553 7 21 7.448 21 8V10Z" fill="white"/>
<mask id="mask0_487_35" style="mask-type:luminance" maskUnits="userSpaceOnUse" x="0" y="2" width="24" height="20">
<path fill-rule="evenodd" clip-rule="evenodd" d="M8.50002 4C10.154 4 11.5 5.346 11.5 7C11.5 8.654 10.154 10 8.50002 10C6.84602 10 5.50002 8.654 5.50002 7C5.50002 5.346 6.84602 4 8.50002 4ZM8.50001 12C11.257 12 13.5 9.757 13.5 7C13.5 4.243 11.257 2 8.50001 2C5.74301 2 3.50001 4.243 3.50001 7C3.50001 9.757 5.74301 12 8.50001 12ZM12 14H5C2.243 14 0 16.243 0 19V21C0 21.553 0.448 22 1 22C1.552 22 2 21.553 2 21V19C2 17.346 3.346 16 5 16H12C13.654 16 15 17.346 15 19V21C15 21.553 15.447 22 16 22C16.553 22 17 21.553 17 21V19C17 16.243 14.757 14 12 14ZM21 10H23C23.553 10 24 10.448 24 11C24 11.552 23.553 12 23 12H21V14C21 14.553 20.553 15 20 15C19.447 15 19 14.553 19 14V12H17C16.447 12 16 11.552 16 11C16 10.448 16.447 10 17 10H19V8C19 7.448 19.447 7 20 7C20.553 7 21 7.448 21 8V10Z" fill="white"/>
</mask>
<g mask="url(#mask0_487_35)">
</svg>
