<svg width="24" height="24" viewBox="0 0 24 24" fill="none" xmlns="http://www.w3.org/2000/svg">
<path fill-rule="evenodd" clip-rule="evenodd" d="M12 7C12 5.346 10.654 4 9 4C7.346 4 6 5.346 6 7C6 8.654 7.346 10 9 10C10.654 10 12 8.654 12 7ZM14 7C14 9.757 11.757 12 9 12C6.243 12 4 9.757 4 7C4 4.243 6.243 2 9 2C11.757 2 14 4.243 14 7ZM0 19C0 16.243 2.243 14 5 14H13C15.757 14 18 16.243 18 19V21C18 21.553 17.553 22 17 22C16.447 22 16 21.553 16 21V19C16 17.346 14.654 16 13 16H5C3.346 16 2 17.346 2 19V21C2 21.553 1.552 22 1 22C0.448 22 0 21.553 0 21V19Z" fill="white"/>
<mask id="mask0_487_37" style="mask-type:luminance" maskUnits="userSpaceOnUse" x="0" y="2" width="18" height="20">
<path fill-rule="evenodd" clip-rule="evenodd" d="M12 7C12 5.346 10.654 4 9 4C7.346 4 6 5.346 6 7C6 8.654 7.346 10 9 10C10.654 10 12 8.654 12 7ZM14 7C14 9.757 11.757 12 9 12C6.243 12 4 9.757 4 7C4 4.243 6.243 2 9 2C11.757 2 14 4.243 14 7ZM0 19C0 16.243 2.243 14 5 14H13C15.757 14 18 16.243 18 19V21C18 21.553 17.553 22 17 22C16.447 22 16 21.553 16 21V19C16 17.346 14.654 16 13 16H5C3.346 16 2 17.346 2 19V21C2 21.553 1.552 22 1 22C0.448 22 0 21.553 0 21V19Z" fill="white"/>
</mask>
<g mask="url(#mask0_487_37)">
</svg>
