<svg width="16" height="16" viewBox="0 0 16 16" fill="none" xmlns="http://www.w3.org/2000/svg">
<g clip-path="url(#clip0_499_4612)">
<path d="M8.00002 0.666626C9.33046 0.666626 10.5575 0.994462 11.681 1.65013C12.8046 2.3058 13.6942 3.19542 14.3498 4.31897C15.0055 5.44252 15.3334 6.66952 15.3334 7.99996C15.3334 9.3304 15.0055 10.5574 14.3498 11.6809C13.6942 12.8045 12.8046 13.6941 11.681 14.3498C10.5575 15.0055 9.33046 15.3333 8.00002 15.3333C6.66958 15.3333 5.44258 15.0055 4.31903 14.3498C3.19548 13.6941 2.30587 12.8045 1.65019 11.6809C0.994523 10.5574 0.666687 9.3304 0.666687 7.99996C0.666687 6.66952 0.994523 5.44252 1.65019 4.31897C2.30587 3.19542 3.19548 2.3058 4.31903 1.65013C5.44258 0.994462 6.66958 0.666626 8.00002 0.666626Z" fill="#328CFF"/>
<path fill-rule="evenodd" clip-rule="evenodd" d="M7.83334 0.333313C9.19402 0.333313 10.4489 0.668599 11.598 1.33917C12.7471 2.00975 13.6569 2.91958 14.3275 4.06866C14.9981 5.21775 15.3333 6.47264 15.3333 7.83331C15.3333 9.19399 14.9981 10.4489 14.3275 11.598C13.6569 12.7471 12.7471 13.6569 11.598 14.3275C10.4489 14.998 9.19402 15.3333 7.83334 15.3333C6.47267 15.3333 5.21778 14.998 4.0687 14.3275C2.91961 13.6569 2.00978 12.7471 1.3392 11.598C0.66863 10.4489 0.333344 9.19399 0.333344 7.83331C0.333344 6.47264 0.66863 5.21775 1.3392 4.06866C2.00978 2.91958 2.91961 2.00975 4.0687 1.33917C5.21778 0.668599 6.47267 0.333313 7.83334 0.333313ZM10.5091 5.42125C10.4961 5.42776 10.4652 5.45869 10.4164 5.51402C10.3702 5.56631 10.3284 5.59681 10.291 5.6055C10.3024 5.60106 10.3148 5.58521 10.3285 5.55797C10.3447 5.52542 10.361 5.48961 10.3773 5.45055C10.3936 5.41149 10.405 5.3887 10.4115 5.38219C10.4505 5.33662 10.5221 5.28779 10.6263 5.2357C10.7175 5.19664 10.8867 5.15758 11.1341 5.11852C11.3555 5.06643 11.5215 5.10224 11.6322 5.22594C11.6192 5.21292 11.6501 5.1706 11.7249 5.09899C11.7998 5.02737 11.847 4.98831 11.8665 4.9818C11.8861 4.96878 11.9349 4.95413 12.013 4.93785C12.0912 4.92158 12.14 4.89716 12.1595 4.86461L12.179 4.64977C12.1009 4.65628 12.044 4.63349 12.0081 4.58141C11.9723 4.52932 11.9512 4.46096 11.9447 4.37633C11.9447 4.38935 11.9251 4.41539 11.8861 4.45445C11.8861 4.40888 11.8714 4.38284 11.8421 4.37633C11.8128 4.36982 11.7754 4.37307 11.7298 4.38609C11.6843 4.39912 11.655 4.40237 11.6419 4.39586C11.5768 4.37633 11.528 4.35191 11.4955 4.32262C11.4629 4.29332 11.4369 4.23961 11.4173 4.16149C11.3978 4.08336 11.3848 4.03453 11.3783 4.015C11.3652 3.98245 11.3343 3.94664 11.2855 3.90758C11.2367 3.86852 11.2057 3.83596 11.1927 3.80992C11.1862 3.7969 11.1781 3.779 11.1683 3.75621C11.1585 3.73343 11.1488 3.71227 11.139 3.69274C11.1292 3.6732 11.1162 3.6553 11.0999 3.63902C11.0837 3.62275 11.0658 3.61461 11.0462 3.61461C11.0267 3.61461 11.0039 3.63089 10.9779 3.66344C10.9518 3.69599 10.9274 3.72854 10.9046 3.76109C10.8818 3.79365 10.8672 3.80992 10.8607 3.80992C10.8412 3.7969 10.8216 3.79202 10.8021 3.79527C10.7826 3.79853 10.7679 3.80178 10.7581 3.80504C10.7484 3.8083 10.7337 3.81806 10.7142 3.83434C10.6947 3.85061 10.6784 3.86201 10.6654 3.86852C10.6458 3.88154 10.6182 3.8913 10.5824 3.89781C10.5466 3.90432 10.5189 3.91083 10.4994 3.91734C10.597 3.88479 10.5938 3.84899 10.4896 3.80992C10.4245 3.78388 10.3724 3.77412 10.3333 3.78063C10.3919 3.75458 10.4164 3.71552 10.4066 3.66344C10.3968 3.61135 10.3692 3.56578 10.3236 3.52672H10.3724C10.3659 3.50068 10.3382 3.47301 10.2894 3.44371C10.2406 3.41441 10.1836 3.38675 10.1185 3.3607C10.0534 3.33466 10.0111 3.31513 9.99155 3.30211C9.93946 3.26956 9.82879 3.23863 9.65952 3.20934C9.49024 3.18004 9.38282 3.17841 9.33725 3.20445C9.3047 3.24352 9.29005 3.2777 9.2933 3.30699C9.29656 3.33629 9.30958 3.38186 9.33237 3.44371C9.35515 3.50556 9.36655 3.54625 9.36655 3.56578C9.37306 3.60484 9.35515 3.64716 9.31284 3.69274C9.27052 3.73831 9.24936 3.77737 9.24936 3.80992C9.24936 3.8555 9.29493 3.90595 9.38608 3.96129C9.47722 4.01663 9.50978 4.08662 9.48373 4.17125C9.4642 4.22333 9.41212 4.27542 9.32748 4.3275C9.24285 4.37958 9.19077 4.41865 9.17123 4.44469C9.13868 4.49677 9.1338 4.55699 9.15659 4.62535C9.17937 4.69371 9.21355 4.74742 9.25912 4.78649C9.27215 4.79951 9.27703 4.81253 9.27377 4.82555C9.27052 4.83857 9.25912 4.85322 9.23959 4.86949C9.22006 4.88577 9.20216 4.89879 9.18588 4.90856C9.16961 4.91832 9.14845 4.92971 9.12241 4.94274L9.09311 4.96227C9.02149 4.99482 8.95476 4.97529 8.89291 4.90367C8.83107 4.83206 8.78712 4.74742 8.76108 4.64977C8.71551 4.48701 8.66342 4.38935 8.60483 4.3568C8.45509 4.30471 8.36069 4.30797 8.32162 4.36656C8.28907 4.28193 8.15561 4.19729 7.92123 4.11266C7.75847 4.05406 7.56967 4.04104 7.35483 4.07359C7.39389 4.06708 7.39389 4.01826 7.35483 3.92711C7.30926 3.82945 7.24741 3.79039 7.16928 3.80992C7.18881 3.77086 7.20183 3.71389 7.20834 3.63902C7.21485 3.56415 7.21811 3.52021 7.21811 3.50719C7.23764 3.42255 7.2767 3.34768 7.3353 3.28258C7.34181 3.27607 7.36459 3.2484 7.40366 3.19957C7.44272 3.15074 7.47364 3.1068 7.49643 3.06773C7.51922 3.02867 7.52084 3.00914 7.50131 3.00914C7.72918 3.03518 7.89194 2.99938 7.98959 2.90172C8.02215 2.86917 8.05958 2.81383 8.1019 2.7357C8.14422 2.65758 8.1784 2.60224 8.20444 2.56969C8.26303 2.53063 8.3086 2.51272 8.34116 2.51598C8.37371 2.51923 8.42091 2.53714 8.48276 2.56969C8.54461 2.60224 8.59181 2.61852 8.62436 2.61852C8.71551 2.62503 8.76596 2.58922 8.77573 2.51109C8.78549 2.43297 8.76108 2.36787 8.70248 2.31578C8.78061 2.32229 8.79037 2.26695 8.73178 2.14977C8.70574 2.10419 8.6797 2.0749 8.65366 2.06188C8.57553 2.03583 8.48764 2.05211 8.38998 2.1107C8.33842 2.13649 8.34429 2.16227 8.40758 2.18805C8.39811 2.18781 8.36783 2.22225 8.31674 2.29137C8.2614 2.36624 8.20769 2.4232 8.15561 2.46227C8.10353 2.50133 8.05144 2.48505 7.99936 2.41344C7.99285 2.40693 7.97495 2.36298 7.94565 2.2816C7.91635 2.20022 7.88543 2.15628 7.85287 2.14977C7.80079 2.14977 7.74871 2.19859 7.69662 2.29625C7.71616 2.24417 7.68035 2.19534 7.5892 2.14977C7.49806 2.10419 7.41993 2.07815 7.35483 2.07164C7.47853 1.99352 7.45248 1.90563 7.2767 1.80797C7.23113 1.78193 7.1644 1.76565 7.07651 1.75914C6.98862 1.75263 6.92514 1.76565 6.88608 1.7982C6.85353 1.84378 6.83562 1.88121 6.83237 1.91051C6.82911 1.93981 6.84539 1.96585 6.8812 1.98863C6.917 2.01142 6.95118 2.02932 6.98373 2.04234C7.01629 2.05537 7.05372 2.06839 7.09604 2.08141C7.13836 2.09443 7.16603 2.10419 7.17905 2.1107C7.27019 2.17581 7.29623 2.22138 7.25717 2.24742C7.24415 2.25393 7.21648 2.26533 7.17416 2.2816C7.13185 2.29788 7.09441 2.31253 7.06186 2.32555C7.02931 2.33857 7.00978 2.35159 7.00327 2.36461C6.98373 2.39065 6.98373 2.43622 7.00327 2.50133C7.0228 2.56643 7.01629 2.61201 6.98373 2.63805C6.95118 2.6055 6.92189 2.54853 6.89584 2.46715C6.8698 2.38577 6.84702 2.33206 6.82748 2.30602C6.87306 2.36461 6.79168 2.38414 6.58334 2.36461L6.48569 2.35484C6.45965 2.35484 6.40756 2.36135 6.32944 2.37438C6.25131 2.3874 6.18458 2.39065 6.12924 2.38414C6.0739 2.37763 6.02996 2.35159 5.99741 2.30602C5.97136 2.25393 5.97136 2.18883 5.99741 2.1107C6.00392 2.08466 6.01694 2.07815 6.03647 2.09117C6.01043 2.07164 5.97462 2.04072 5.92905 1.9984C5.88347 1.95608 5.85092 1.92841 5.83139 1.91539C5.53191 2.01305 5.22592 2.14651 4.91342 2.31578C4.95248 2.32229 4.99155 2.31904 5.03061 2.30602C5.06316 2.293 5.10548 2.27184 5.15756 2.24254C5.20965 2.21324 5.2422 2.19534 5.25522 2.18883C5.47657 2.09768 5.61329 2.0749 5.66537 2.12047L5.7142 2.07164C5.80535 2.17581 5.87045 2.25719 5.90952 2.31578C5.86394 2.28974 5.76629 2.28648 5.61655 2.30602C5.48634 2.34508 5.41472 2.38414 5.4017 2.4232C5.44728 2.50133 5.46355 2.55992 5.45053 2.59898C5.42449 2.57945 5.38705 2.5469 5.33823 2.50133C5.2894 2.45576 5.2422 2.41995 5.19662 2.39391C5.15105 2.36787 5.10222 2.35159 5.05014 2.34508C4.94597 2.34508 4.87436 2.34833 4.8353 2.35484C3.88478 2.87568 3.1198 3.59833 2.54037 4.52281C2.58595 4.56839 2.62501 4.59443 2.65756 4.60094C2.6836 4.60745 2.69988 4.63675 2.70639 4.68883C2.7129 4.74091 2.72104 4.77672 2.7308 4.79625C2.74057 4.81578 2.778 4.80602 2.84311 4.76695C2.9017 4.81904 2.91147 4.88089 2.87241 4.9525C2.87892 4.94599 3.02215 5.03388 3.30209 5.21617C3.42579 5.32685 3.49415 5.39521 3.50717 5.42125C3.5267 5.49287 3.49415 5.55146 3.40952 5.59703C3.403 5.58401 3.37371 5.55471 3.32162 5.50914C3.26954 5.46357 3.24024 5.45055 3.23373 5.47008C3.2142 5.50263 3.21583 5.56285 3.23862 5.65074C3.25992 5.7329 3.29117 5.77381 3.33238 5.77348C3.29159 5.77987 3.26359 5.83173 3.24838 5.92906C3.23211 6.03323 3.22397 6.14879 3.22397 6.27574C3.22397 6.4027 3.22071 6.47919 3.2142 6.50524L3.23373 6.515C3.2142 6.59313 3.23211 6.70543 3.28745 6.85191C3.34278 6.9984 3.41277 7.06188 3.49741 7.04234C3.41277 7.06188 3.47787 7.20185 3.69272 7.46227C3.73178 7.51435 3.75782 7.54365 3.77084 7.55016C3.79037 7.56318 3.82944 7.58759 3.88803 7.6234C3.94662 7.65921 3.99545 7.69176 4.03452 7.72106C4.07358 7.75035 4.10613 7.78453 4.13217 7.82359C4.15821 7.85615 4.19077 7.92939 4.22983 8.04332C4.26889 8.15725 4.31446 8.23375 4.36655 8.27281C4.35353 8.31188 4.38445 8.37698 4.45932 8.46813C4.53419 8.55927 4.56837 8.63414 4.56186 8.69274C4.55535 8.69274 4.54721 8.69599 4.53745 8.7025C4.52768 8.70901 4.51954 8.71227 4.51303 8.71227C4.53256 8.75784 4.58302 8.80341 4.6644 8.84899C4.74578 8.89456 4.79623 8.93688 4.81577 8.97594C4.82228 8.99547 4.82879 9.02802 4.8353 9.0736C4.84181 9.11917 4.85157 9.15497 4.86459 9.18102C4.87761 9.20706 4.90366 9.21357 4.94272 9.20055C4.95574 9.07034 4.87761 8.86852 4.70834 8.59508C4.61069 8.43232 4.55535 8.33792 4.54233 8.31188C4.5228 8.27932 4.50489 8.22887 4.48862 8.16051C4.47234 8.09215 4.45769 8.04495 4.44467 8.01891C4.45769 8.01891 4.47722 8.02379 4.50327 8.03356C4.52931 8.04332 4.55698 8.05471 4.58627 8.06774C4.61557 8.08076 4.63998 8.09378 4.65952 8.1068C4.67905 8.11982 4.68556 8.12958 4.67905 8.13609C4.65952 8.18167 4.66603 8.23863 4.69858 8.30699C4.73113 8.37535 4.77019 8.43557 4.81577 8.48766C4.86134 8.53974 4.91668 8.60159 4.98178 8.6732C5.04689 8.74482 5.08595 8.78714 5.09897 8.80016C5.13803 8.83922 5.1836 8.9027 5.23569 8.99059C5.28777 9.07848 5.28777 9.12242 5.23569 9.12242C5.29428 9.12242 5.35939 9.1566 5.431 9.22496C5.50261 9.29332 5.55795 9.3568 5.59702 9.41539C5.62957 9.46747 5.65561 9.55211 5.67514 9.6693C5.69467 9.78649 5.71095 9.86461 5.72397 9.90367C5.73699 9.94925 5.76466 9.99319 5.80698 10.0355C5.84929 10.0778 5.88998 10.1088 5.92905 10.1283L6.0853 10.2064L6.21225 10.2748C6.2448 10.2878 6.30502 10.322 6.39291 10.3773C6.4808 10.4326 6.55079 10.4701 6.60287 10.4896C6.66798 10.5157 6.72006 10.5287 6.75912 10.5287C6.79819 10.5287 6.84539 10.5205 6.90073 10.5043C6.95607 10.488 7.00001 10.4766 7.03256 10.4701C7.13022 10.4571 7.22462 10.5059 7.31577 10.6166C7.40691 10.7272 7.47527 10.7956 7.52084 10.8216C7.75522 10.9453 7.93426 10.9811 8.05795 10.9291C8.04493 10.9356 8.04656 10.96 8.06284 11.0023C8.07911 11.0446 8.10515 11.0951 8.14096 11.1537C8.17677 11.2123 8.20607 11.2595 8.22885 11.2953C8.25164 11.3311 8.26954 11.3588 8.28256 11.3783C8.31511 11.4173 8.37371 11.4662 8.45834 11.5248C8.54298 11.5834 8.60157 11.6322 8.63412 11.6713C8.66673 11.6495 8.688 11.6255 8.69792 11.5992C8.68789 11.6485 8.71219 11.7083 8.77084 11.7787C8.83595 11.8568 8.89454 11.8893 8.94662 11.8763C9.03777 11.8568 9.08334 11.7526 9.08334 11.5638C8.88152 11.6615 8.72202 11.6029 8.60483 11.388C8.60483 11.3815 8.59669 11.3636 8.58041 11.3343C8.56414 11.305 8.55112 11.2774 8.54135 11.2513C8.53159 11.2253 8.52345 11.1976 8.51694 11.1683C8.51043 11.139 8.51043 11.1146 8.51694 11.0951C8.52345 11.0755 8.53972 11.0658 8.56577 11.0658C8.62436 11.0658 8.65691 11.0544 8.66342 11.0316C8.66993 11.0088 8.66342 10.9681 8.64389 10.9095C8.62436 10.8509 8.61134 10.8086 8.60483 10.7826C8.59832 10.7305 8.56251 10.6654 8.49741 10.5873C8.4323 10.5091 8.39324 10.4603 8.38022 10.4408C8.34767 10.4994 8.29558 10.5254 8.22397 10.5189C8.15235 10.5124 8.10027 10.4831 8.06772 10.431C8.06772 10.4375 8.06284 10.4554 8.05307 10.4847C8.0433 10.514 8.03842 10.5352 8.03842 10.5482C7.95379 10.5482 7.90496 10.5449 7.89194 10.5384C7.89845 10.5189 7.90659 10.4619 7.91635 10.3675C7.92612 10.2731 7.93751 10.1999 7.95053 10.1478C7.95704 10.1218 7.97495 10.0827 8.00424 10.0306C8.03354 9.97854 8.05795 9.93134 8.07748 9.88902C8.09702 9.84671 8.11004 9.80602 8.11655 9.76695C8.12306 9.72789 8.10841 9.69697 8.0726 9.67418C8.03679 9.65139 7.97983 9.64326 7.9017 9.64977C7.77801 9.65628 7.69337 9.72138 7.6478 9.84508C7.64129 9.86461 7.63152 9.89879 7.6185 9.94762C7.60548 9.99645 7.5892 10.0339 7.56967 10.0599C7.55014 10.086 7.52084 10.1088 7.48178 10.1283C7.43621 10.1478 7.35808 10.1543 7.24741 10.1478C7.13673 10.1413 7.0586 10.125 7.01303 10.099C6.9284 10.0469 6.85515 9.9525 6.7933 9.81578C6.73146 9.67906 6.70053 9.55862 6.70053 9.45445C6.70053 9.38935 6.70867 9.30309 6.72495 9.19567C6.74122 9.08824 6.75099 9.00686 6.75424 8.95152C6.7575 8.89619 6.73959 8.81643 6.70053 8.71227C6.72006 8.69925 6.74936 8.66832 6.78842 8.61949C6.82748 8.57067 6.86004 8.53649 6.88608 8.51695C6.8991 8.51044 6.91375 8.50556 6.93002 8.50231C6.9463 8.49905 6.96095 8.49905 6.97397 8.50231C6.98699 8.50556 7.00001 8.50068 7.01303 8.48766C7.02605 8.47464 7.03582 8.4551 7.04233 8.42906C7.03582 8.42255 7.0228 8.41279 7.00327 8.39977C6.99021 8.38672 6.98007 8.37803 6.97283 8.3737C7.02098 8.38933 7.11087 8.38338 7.24252 8.35582C7.3825 8.32652 7.47202 8.33141 7.51108 8.37047C7.60873 8.44208 7.68035 8.43557 7.72592 8.35094C7.72592 8.34443 7.71778 8.3135 7.70151 8.25816C7.68523 8.20283 7.6836 8.15888 7.69662 8.12633C7.72918 8.30211 7.82358 8.33141 7.97983 8.21422C7.99936 8.23375 8.04982 8.25003 8.1312 8.26305C8.21258 8.27607 8.26954 8.29234 8.30209 8.31188C8.32162 8.3249 8.34441 8.3428 8.37045 8.36559C8.39649 8.38837 8.4144 8.40302 8.42416 8.40953C8.43393 8.41604 8.45021 8.41442 8.47299 8.40465C8.49578 8.39488 8.52345 8.37372 8.556 8.34117C8.6211 8.43232 8.66017 8.51044 8.67319 8.57555C8.7448 8.83596 8.80665 8.97919 8.85873 9.00524C8.90431 9.02477 8.94011 9.03128 8.96616 9.02477C8.9922 9.01826 9.00685 8.98733 9.0101 8.93199C9.01336 8.87665 9.01336 8.83108 9.0101 8.79527C9.00685 8.75947 9.00196 8.71878 8.99545 8.6732L8.98569 8.59508V8.4193L8.97592 8.34117C8.87827 8.32164 8.81804 8.28258 8.79526 8.22399C8.77247 8.16539 8.77735 8.10517 8.80991 8.04332C8.84246 7.98147 8.89129 7.92125 8.95639 7.86266C8.9629 7.85615 8.98894 7.84475 9.03452 7.82848C9.08009 7.8122 9.13054 7.79104 9.18588 7.765C9.24122 7.73896 9.28191 7.71292 9.30795 7.68688C9.44467 7.56318 9.4935 7.44925 9.45444 7.34508C9.50001 7.34508 9.53582 7.31578 9.56186 7.25719C9.55535 7.25719 9.53907 7.24742 9.51303 7.22789C9.48699 7.20836 9.46258 7.19208 9.43979 7.17906C9.417 7.16604 9.40235 7.15953 9.39584 7.15953C9.45444 7.12698 9.46095 7.0749 9.41537 7.00328C9.44793 6.98375 9.47234 6.94794 9.48862 6.89586C9.50489 6.84378 9.52931 6.81122 9.56186 6.7982C9.62045 6.87633 9.68881 6.88284 9.76694 6.81774C9.81902 6.76565 9.82228 6.71357 9.7767 6.66149C9.80926 6.61591 9.87599 6.58173 9.9769 6.55895C10.0778 6.53616 10.138 6.50524 10.1576 6.46617C10.2031 6.47919 10.2292 6.47268 10.2357 6.44664C10.2422 6.4206 10.2455 6.38154 10.2455 6.32945C10.2455 6.27737 10.2552 6.23831 10.2747 6.21227C10.3008 6.17971 10.3496 6.15042 10.4212 6.12438C10.4928 6.09833 10.5352 6.08206 10.5482 6.07555L10.7142 5.96813C10.7311 5.94558 10.7334 5.93279 10.721 5.92977C10.8353 5.94068 10.9339 5.90463 11.0169 5.82164C11.082 5.75003 11.0625 5.68492 10.9583 5.62633C10.9779 5.58727 10.9681 5.55634 10.929 5.53356C10.89 5.51077 10.8412 5.49287 10.7826 5.47984C10.8021 5.47333 10.8395 5.47171 10.8949 5.47496C10.9502 5.47822 10.9844 5.47333 10.9974 5.46031C11.0951 5.39521 11.0723 5.34313 10.929 5.30406C10.8184 5.27151 10.6784 5.31057 10.5091 5.42125ZM8.40952 2.18883C8.40886 2.18857 8.40822 2.18831 8.40758 2.18805L8.40952 2.18883ZM12.345 12.1401C11.401 13.1362 10.2584 13.7514 8.91729 13.9858C8.90427 13.9207 8.89776 13.8686 8.89776 13.8295C8.89125 13.7775 8.91404 13.7075 8.96612 13.6196C9.0182 13.5317 9.04425 13.465 9.04425 13.4194C8.94008 13.3933 8.90102 13.3087 8.92706 13.1655C8.94008 13.0678 9.03448 12.9376 9.21026 12.7748C9.33396 12.6642 9.37302 12.5079 9.32745 12.3061C9.30792 12.2215 9.29164 12.0978 9.27862 11.935C9.26606 11.778 9.2535 11.6664 9.24094 11.6003C9.24755 11.6171 9.27802 11.6326 9.33233 11.6469C9.39418 11.6632 9.43162 11.6844 9.44464 11.7104C9.45766 11.6909 9.47393 11.6551 9.49347 11.603C9.513 11.5509 9.53253 11.5118 9.55206 11.4858C9.56508 11.4663 9.59275 11.4418 9.63507 11.4125C9.67738 11.3832 9.70505 11.3653 9.71807 11.3588C9.7311 11.3523 9.76039 11.3312 9.80597 11.2954C9.85154 11.2595 9.88897 11.2319 9.91827 11.2123C9.94757 11.1928 9.98663 11.1782 10.0355 11.1684C10.0843 11.1586 10.1185 11.1733 10.138 11.2123C10.1705 11.2514 10.164 11.3116 10.1185 11.393C10.0729 11.4744 10.0729 11.5314 10.1185 11.5639C10.125 11.5444 10.1315 11.5021 10.138 11.437C10.1445 11.3719 10.164 11.323 10.1966 11.2905C10.2357 11.2514 10.2731 11.2286 10.3089 11.2221C10.3447 11.2156 10.3773 11.2205 10.4066 11.2368C10.4358 11.253 10.47 11.2758 10.5091 11.3051C10.5482 11.3344 10.584 11.3523 10.6165 11.3588C10.7142 11.3914 10.8314 11.463 10.9681 11.5737C10.9616 11.5672 10.9616 11.559 10.9681 11.5493C10.9746 11.5395 10.9876 11.5297 11.0071 11.52C11.0267 11.5102 11.0446 11.5004 11.0608 11.4907C11.0771 11.4809 11.095 11.4728 11.1146 11.4663L11.1439 11.4565C11.1894 11.4565 11.222 11.4532 11.2415 11.4467C11.261 11.4402 11.2887 11.4467 11.3245 11.4663C11.3603 11.4858 11.3847 11.5004 11.3978 11.5102C11.4108 11.52 11.4336 11.5379 11.4661 11.5639C11.4987 11.59 11.5215 11.6095 11.5345 11.6225C11.554 11.6355 11.5898 11.6583 11.6419 11.6909C11.694 11.7234 11.7347 11.7495 11.764 11.769C11.7933 11.7885 11.8193 11.8178 11.8421 11.8569C11.8649 11.8959 11.873 11.9383 11.8665 11.9838C11.9056 11.9903 11.9837 12.0164 12.1009 12.062C12.1204 12.075 12.1611 12.0864 12.223 12.0961C12.2848 12.1059 12.3255 12.1206 12.345 12.1401ZM9.23956 11.5932C9.24002 11.5955 9.24048 11.5979 9.24094 11.6003C9.24002 11.5979 9.23956 11.5956 9.23956 11.5932Z" fill="white"/>
</g>
<defs>
<clipPath id="clip0_499_4612">
<rect width="16" height="16" fill="white"/>
</clipPath>
</defs>
</svg>
