<svg width="24" height="24" viewBox="0 0 24 24" fill="none" xmlns="http://www.w3.org/2000/svg">
<path fill-rule="evenodd" clip-rule="evenodd" d="M11.6334 20.1667H8.11871C7.8551 20.1667 7.64116 19.952 7.64116 19.6875V13.9375C7.64116 13.673 7.8551 13.4583 8.11871 13.4583H14.3765C15.3325 12.8546 16.4595 12.5 17.6696 12.5C18.2656 12.5 18.8625 12.5882 19.4432 12.7616C19.5884 12.8067 19.7441 12.777 19.8644 12.6869C19.9303 12.638 19.981 12.5728 20.0144 12.5H22.4537C22.7326 12.4942 22.9417 12.2892 22.9408 12.0208C22.9408 11.8474 22.8491 11.696 22.7116 11.6116L20.0564 8.94746V1.47917C20.0564 1.21467 19.8425 1 19.5789 1H15.7585C15.4949 1 15.2809 1.21467 15.2809 1.47917V4.15579L12.6134 1.47917C11.9992 0.862 10.9248 0.861042 10.3087 1.47917L0.139869 11.6816C0.00329046 11.8186 -0.0377785 12.0247 0.0367187 12.2039C0.110261 12.3831 0.285043 12.5 0.477971 12.5H2.8657V23.5208C2.8657 23.7853 3.07964 24 3.34325 24H12.9945C13.1883 24 13.3631 23.8821 13.4367 23.702C13.5102 23.5218 13.4672 23.3148 13.3287 23.1787C12.4758 22.3402 11.8999 21.2994 11.6334 20.1667ZM17.747 13.4583C14.8502 13.4583 12.494 15.8225 12.494 18.7291C12.494 21.6357 14.8502 23.9999 17.747 23.9999C20.6438 23.9999 23 21.6357 23 18.7291C23 15.8225 20.6438 13.4583 17.747 13.4583ZM18.2246 19.2083H19.6572C19.9218 19.2083 20.1347 18.9936 20.1347 18.7291C20.1347 18.4646 19.9208 18.2499 19.6572 18.2499H18.2246V16.8124C18.2246 16.5479 18.0106 16.3333 17.747 16.3333C17.4834 16.3333 17.2695 16.5479 17.2695 16.8124V18.2499H15.8368C15.5732 18.2499 15.3593 18.4646 15.3593 18.7291C15.3593 18.9936 15.5732 19.2083 15.8368 19.2083H17.2695V20.6458C17.2695 20.9103 17.4834 21.1249 17.747 21.1249C18.0106 21.1249 18.2246 20.9103 18.2246 20.6458V19.2083Z" fill="#2E3758"/>
</svg>
