<svg width="24" height="24" viewBox="0 0 24 24" fill="none" xmlns="http://www.w3.org/2000/svg">
<path d="M20.5723 4.01126L8.8891 15.7704L3.19921 9.32182C2.66815 8.7149 1.6819 8.63903 1.07498 9.17009C0.468058 9.70115 0.392193 10.6874 0.92325 11.2943L7.67526 18.9567L7.75112 19.0326L7.82699 19.1084C7.90285 19.1084 7.90285 19.1843 7.97872 19.1843L8.05458 19.2602C8.13045 19.2602 8.20631 19.336 8.28218 19.336H8.35804C8.43391 19.336 8.58564 19.336 8.6615 19.336C8.73737 19.336 8.81323 19.336 8.96496 19.336H9.04083C9.11669 19.336 9.19256 19.336 9.26842 19.2602C9.26842 19.2602 9.34429 19.2602 9.34429 19.1843C9.42016 19.1843 9.42015 19.1084 9.49602 19.1084L9.57189 19.0326L9.64775 18.9567L22.5448 6.05962C23.1518 5.45269 23.1518 4.54231 22.5448 3.93539C21.9379 3.32847 21.1793 3.40433 20.5723 4.01126Z" fill="white"/>
</svg>
