<svg width="64" height="17" viewBox="0 0 64 17" fill="none" xmlns="http://www.w3.org/2000/svg">
<path d="M8.11202 3.5209C9.52642 3.7705 9.98402 4.4153 9.98402 5.3305C9.98402 6.0585 9.67202 7.2025 8.98562 8.3049C8.65282 8.2633 8.29922 8.2425 7.98722 8.2425C7.63362 8.2425 7.34242 8.2633 7.11362 8.3049C7.42562 7.1401 7.75842 5.6217 8.11202 3.5209ZM5.72 3.5417C5.304 6.3289 4.3056 10.0105 3.2656 12.2153C1.6432 12.3609 0.9152 12.5689 0.9152 13.3593C0.9152 14.6489 1.7472 15.4601 2.2672 15.4601C2.7664 15.4601 3.2032 15.1689 4.0768 14.4617C6.136 15.8137 7.42562 16.2089 8.88162 16.2089C11.8976 16.2089 13.3536 14.6073 13.3536 12.4025C13.3536 11.4873 12.8752 9.9481 10.816 8.8665C12.3968 7.3273 13.312 5.6009 13.312 4.2697C13.312 1.8985 11.6064 0.234497 7.52962 0.234497C3.0576 0.234497 0 2.4393 0 4.7689C0 5.5177 0.3328 5.9961 0.8944 5.9961C1.0608 5.9961 1.248 5.9545 1.3728 5.8921C2.1424 4.3529 3.9104 3.7705 5.72 3.5417ZM9.38082 13.7545C8.59042 13.7545 6.94722 13.2345 5.304 12.6729C5.9488 11.7577 6.38562 10.7801 6.67682 9.7609C9.40162 10.9257 10.3168 11.7993 10.3168 12.8809C10.3168 13.4217 9.90082 13.7545 9.38082 13.7545ZM29.5241 6.7033C29.1289 6.7033 28.7961 6.8281 28.5049 7.1817C28.4841 6.7865 28.1929 6.3081 27.5273 6.3081C26.8201 6.3081 25.8841 6.8073 24.6985 7.7433C24.0537 7.8473 22.9929 7.9929 22.2233 8.0969C22.2233 6.9737 21.8281 6.4953 21.1209 6.4953C20.6841 6.4953 20.2681 6.7033 19.9353 7.1817C19.9145 6.5161 19.2905 6.2665 18.7705 6.2665C16.5657 6.2665 14.3193 9.3449 14.3193 12.7977C14.3193 14.8361 15.4841 15.8137 16.9609 15.8137C19.5609 15.8137 21.3705 12.5689 21.9321 9.9273C21.9321 9.9273 22.6393 9.8649 23.4713 9.7817C23.0969 10.6969 22.8889 11.7369 22.8889 12.7977C22.8889 14.8361 24.0537 15.8137 25.5305 15.8137C26.9865 15.8137 28.0889 15.0649 29.0873 13.7129C29.3161 13.8585 29.5449 13.9209 29.9193 13.9209C31.6873 13.9209 33.0809 11.9657 33.0809 11.0921C33.0809 10.6553 32.6441 10.3433 32.2697 10.3433C31.5833 11.4457 30.9801 11.9241 30.3769 11.9241C30.1689 11.9241 30.0233 11.8409 29.9609 11.7785C30.4185 10.6345 30.7929 9.0953 30.7929 8.0969C30.7929 7.2857 30.3769 6.7033 29.5241 6.7033ZM17.2729 12.1737C17.2729 10.5513 18.3129 8.3465 19.5401 7.8057C19.2905 8.2009 19.2073 8.5961 19.2073 8.9289C19.2073 9.4281 19.4153 9.8233 19.7065 9.9273C19.4361 11.6745 18.7705 13.4425 18.0009 13.4425C17.6681 13.4425 17.2729 13.1513 17.2729 12.1737ZM25.8425 12.0281C25.8425 11.1129 26.0921 9.9273 26.5705 9.1369C27.1113 8.9289 27.6729 8.5753 27.9849 8.1593C27.6937 8.8873 27.4649 9.9273 27.4649 10.5721C27.4649 11.2169 27.5689 12.0073 27.7977 12.4857C27.5065 12.9433 27.0905 13.3385 26.5913 13.3385C26.2169 13.3385 25.8425 13.0473 25.8425 12.0281ZM32.1287 11.3209C31.6087 12.2153 31.4423 12.9641 31.4423 13.6089C31.4631 14.6905 32.3575 15.7929 33.5639 15.7929C34.0423 15.7929 34.4375 15.6473 34.6663 15.3977C34.6871 13.6297 34.7287 12.7353 34.8119 11.7993L35.7479 11.4249C35.6855 11.8825 35.6439 12.4233 35.6439 12.9433C35.6439 15.2729 36.1639 16.1673 37.4951 16.1673C39.4087 16.1673 42.6119 12.2777 42.6119 11.0713C42.6119 10.6553 42.1959 10.4265 41.8007 10.4265C40.3447 12.5273 39.5127 13.4217 38.9719 13.4217C38.4727 13.4217 38.2647 12.6521 38.2647 10.4057C40.4071 9.3449 40.6567 9.1369 40.6567 8.1801C40.6567 7.3897 40.1783 6.5577 39.1591 6.5577C38.5975 6.5577 37.9943 6.9737 37.0583 8.2633C36.7879 8.6377 36.5383 9.0953 36.3303 9.5321L34.9367 10.1145C35.0615 9.2201 35.5191 7.8681 35.9767 6.9529C37.4951 3.9993 37.9527 2.8345 37.9527 1.9193C37.9527 0.858497 37.3911 0.442497 36.4967 0.442497C33.8967 0.442497 33.0023 3.5417 32.1287 11.3209ZM41.7776 9.6569C41.6112 10.5305 40.9456 12.9433 40.9456 14.3369C40.9456 15.4185 41.3824 15.9385 42.5888 15.9385C44.6896 15.9385 48.0592 12.6729 48.0592 11.0921C48.0592 10.6761 47.664 10.3849 47.2688 10.3849C46.1872 12.0697 44.96 13.2553 44.3152 13.2553C44.128 13.2553 44.024 13.1721 44.024 12.9433C44.024 12.4233 45.0016 8.8041 45.5632 6.7865C47.1232 3.8537 47.5392 2.8345 47.5392 1.9193C47.5392 0.858497 46.9776 0.442497 46.0832 0.442497C44.44 0.442497 42.9632 2.1273 42.5888 4.9353C42.4016 6.3497 42.0272 8.3049 41.7776 9.6569ZM50.9039 8.8665C50.9039 9.4905 50.6543 10.1353 49.4895 10.3433C49.6351 8.8873 50.1967 8.1801 50.4879 8.1801C50.7375 8.1801 50.9039 8.4297 50.9039 8.8665ZM49.4063 15.8553C52.1103 15.8553 55.5839 12.5481 55.5839 11.0089C55.5839 10.6761 55.2927 10.3433 54.7935 10.3225C53.6079 12.1321 51.7775 13.3385 50.3631 13.3385C49.5519 13.3385 49.3647 12.8185 49.3647 11.8825C52.2143 11.2377 53.2335 9.8857 53.2335 8.1385C53.2335 6.6825 52.4431 5.9961 51.0079 5.9961C48.9903 5.9961 46.4319 9.1993 46.4319 12.3401C46.4319 14.5865 47.3679 15.8553 49.4063 15.8553ZM59.1901 7.7225C58.8365 7.6185 58.4413 7.4729 58.2125 7.3481C58.4829 6.8905 58.9197 6.5785 59.4189 6.3081C59.4605 6.1833 59.4813 6.0377 59.4813 5.8921C59.4813 5.3305 59.0029 4.9977 58.2957 4.9977C57.1309 4.9977 54.9469 7.0569 54.9469 8.5129C54.9469 8.9081 55.0925 9.1785 55.2589 9.3657C54.9053 10.2185 54.5101 10.7385 53.9693 11.5081C53.8653 11.6537 53.8237 11.8409 53.8237 12.0073C53.8237 12.4441 54.1357 12.8185 54.6557 12.8185C55.3421 12.0489 55.8205 11.3209 56.4653 10.0937C56.9229 10.2809 57.1517 10.4057 57.1517 10.6553C57.1517 11.1961 56.1325 12.9641 56.1325 14.3369C56.1325 15.5225 56.8397 16.0841 58.1085 16.0841C60.0221 16.0841 63.5789 12.3817 63.5789 11.0713C63.5789 10.7593 63.2253 10.4265 62.7053 10.4265C61.6029 12.1529 60.1469 13.4425 59.5645 13.4425C59.2941 13.4425 59.2109 13.2345 59.2109 12.9433C59.2109 12.4233 59.6269 11.4041 60.1053 10.4473C60.4381 9.7817 60.6669 9.2825 60.6669 8.8665C60.6669 8.3673 60.4173 8.0761 59.1901 7.7225Z" fill="white"/>
<path opacity="0.1" fill-rule="evenodd" clip-rule="evenodd" d="M17.2305 9.56888C17.2305 9.56888 40.4594 -10.842 60.4529 7.95628C46.904 7.71878 38.6502 9.62028 32.9628 14.2709C31.5296 15.4429 29.0946 15.5151 28.0926 16.6917C25.5588 16.602 26.8446 17.3853 25.1628 16.7152C23.7321 16.1452 22.622 12.3549 20.3981 12.3581C18.8578 12.3603 17.2305 9.56888 17.2305 9.56888Z" fill="#FCFDFE"/>
</svg>
