<svg width="18" height="14" viewBox="0 0 18 14" fill="none" xmlns="http://www.w3.org/2000/svg">
<path d="M5.00003 1.55267C5.00003 0.862318 5.55967 0.302673 6.25003 0.302673H16.75C17.4404 0.302673 18 0.862317 18 1.55267V1.68425C18 2.3746 17.4404 2.93425 16.75 2.93425H6.25003C5.55968 2.93425 5.00003 2.3746 5.00003 1.68425V1.55267Z" fill="white"/>
<path d="M5.00003 6.8158C5.00003 6.12544 5.55967 5.5658 6.25003 5.5658H16.75C17.4404 5.5658 18 6.12544 18 6.8158V6.94737C18 7.63772 17.4404 8.19737 16.75 8.19737H6.25003C5.55968 8.19737 5.00003 7.63772 5.00003 6.94737V6.8158Z" fill="white"/>
<path d="M4.57764e-05 12.079C4.57764e-05 11.3886 0.55969 10.829 1.25005 10.829H16.75C17.4404 10.829 18 11.3886 18 12.079V12.2106C18 12.9009 17.4404 13.4606 16.75 13.4606H1.25005C0.559691 13.4606 4.57764e-05 12.9009 4.57764e-05 12.2106V12.079Z" fill="white"/>
</svg>
