<svg width="24" height="24" viewBox="0 0 24 24" fill="none" xmlns="http://www.w3.org/2000/svg">
<g clip-path="url(#clip0_487_46)">
<path d="M9.81551 9.6678V8.71422H1.55649L1.54468 18.9652C1.54468 20.0237 2.59626 20.8723 3.90777 20.8723H20.4494C21.761 20.8723 22.8125 20.0237 22.8125 18.9652V8.71422H14.5417V9.6678H9.81551Z" fill="#328CFF"/>
<path d="M21.6311 4.97166H17.8856V2.65583L15.5225 0.339996H8.8113L6.46002 2.65583V4.97166H2.73224C1.42663 4.97166 0.369141 6.008 0.369141 7.2875V11.7537C0.369141 13.0332 1.42663 14.0696 2.73224 14.0696H9.82152V11.7537H14.5477V14.0696H21.637C22.9426 14.0696 24.0001 13.0332 24.0001 11.7537V7.2875C23.9942 6.008 22.9367 4.97166 21.6311 4.97166Z" fill="white"/>
<path d="M9.81551 17.3779V16.22H1.55649L1.54468 21.8442C1.54468 23.1295 2.59626 24.16 3.90777 24.16H20.4494C21.761 24.16 22.8125 23.1295 22.8125 21.8442V16.22H14.5417V17.3779H9.81551Z" fill="white"/>
<path d="M14.536 4.97169H9.80981V2.65585H14.536V4.97169Z" fill="#328CFF"/>
</g>
<defs>
<clipPath id="clip0_487_46">
<rect width="24" height="24" fill="white"/>
</clipPath>
</defs>
</svg>
