<svg width="24" height="24" viewBox="0 0 24 24" fill="none" xmlns="http://www.w3.org/2000/svg">
<path d="M4.53568 10.4118C4.53568 10.9965 4.05598 11.4706 3.46425 11.4706C2.87252 11.4706 2.39282 10.9965 2.39282 10.4118V6.17647C2.39282 4.42215 3.83191 3 5.60711 3C7.38231 3 8.82139 4.42215 8.82139 6.17647C8.82139 6.76124 8.3417 7.23529 7.74997 7.23529C7.15823 7.23529 6.67854 6.76124 6.67854 6.17647C6.67854 5.5917 6.19884 5.11765 5.60711 5.11765C5.01537 5.11765 4.53568 5.5917 4.53568 6.17647V10.4118Z" fill="white"/>
<path d="M4.53568 20.9997H2.39282C2.39282 18.0758 4.7913 16.7644 7.74996 16.7644H14.1785C17.1372 16.7644 19.5357 18.0758 19.5357 20.9997H17.3928C17.3928 19.2454 15.9537 18.8821 14.1785 18.8821H7.74996C5.97476 18.8821 4.53568 19.2454 4.53568 20.9997Z" fill="white"/>
<path fill-rule="evenodd" clip-rule="evenodd" d="M22.75 9.35303H0.25L0.791924 14.173C1.09337 16.8541 3.38657 18.8824 6.1163 18.8824H16.8837C19.6134 18.8824 21.9066 16.8541 22.2081 14.173L22.75 9.35303ZM16.9107 15.6002C18.1369 14.6913 18.7321 13.5149 18.7321 12.0002C18.7321 11.5616 19.0919 11.2061 19.5357 11.2061C19.9795 11.2061 20.3393 11.5616 20.3393 12.0002C20.3393 14.0148 19.5059 15.662 17.875 16.8708C17.52 17.1339 17.0163 17.0628 16.75 16.7119C16.4837 16.3611 16.5557 15.8633 16.9107 15.6002Z" fill="white"/>
</svg>
