<svg width="434" height="205" viewBox="0 0 434 205" fill="none" xmlns="http://www.w3.org/2000/svg">
<mask id="mask0_526_5578" style="mask-type:alpha" maskUnits="userSpaceOnUse" x="0" y="0" width="434" height="205">
<rect width="434" height="205" fill="#C4C4C4"/>
</mask>
<g mask="url(#mask0_526_5578)">
<path fill-rule="evenodd" clip-rule="evenodd" d="M294.836 93.4123C286.631 80.2825 273.062 71.6499 258.888 70.5503C253.083 70.1005 247.085 70.8991 241.884 73.8589C225.253 83.3216 223.401 108.897 223.795 129.966C208.201 112.642 187.031 101.898 165.229 100.248C156.035 99.5513 146.343 100.572 138.541 106.134C123.974 116.517 120.625 138.494 118.658 157.852C113.735 151.526 105.559 148.712 98.3714 150.87C91.1742 153.029 85.3013 160.056 83.7947 168.309C67.9512 159.529 48.2597 164.509 33.8269 175.995C19.4037 187.483 9.25081 204.5 0 221.503C9.67305 227.958 20.7759 231.055 31.7733 233.674C87.6044 246.982 144.933 250.023 201.982 251.265C268.83 252.719 335.831 251.757 402.353 244.129C406.278 243.679 410.433 243.104 413.532 240.345C415.807 238.318 417.349 235.347 418.474 232.365C459.177 124.507 407.624 74.3885 396.834 60.8429C386.044 47.2973 357.979 34.5172 338.269 38.8645C315.506 43.8854 296.899 67.2527 294.836 93.4123Z" fill="white"/>
<path opacity="0.7" fill-rule="evenodd" clip-rule="evenodd" d="M291.78 147.241C289.048 139.947 288.106 132.087 289.733 124.459C291.37 116.831 296.129 109.712 303.057 106.379C306.036 104.947 309.309 104.236 312.593 104.006C313.04 103.975 313.497 103.96 313.944 103.96C325.117 103.96 334.938 113.571 341.685 122.821C337.25 122.029 332.711 121.528 328.209 121.528C322.366 121.528 316.58 122.369 311.146 124.51C301.515 128.305 293.226 136.819 291.78 147.241Z" fill="#DADDE7"/>
<path opacity="0.7" fill-rule="evenodd" clip-rule="evenodd" d="M168.747 158.084C171.14 157.109 173.717 156.676 176.399 156.676C187.723 156.676 200.825 164.391 208.881 171.731C210.881 160.837 220.542 144.312 231.491 142.761C233.077 142.538 234.654 142.432 236.231 142.432C245.613 142.432 254.899 146.192 262.667 151.614C271.741 157.949 279.307 165.717 286.536 174.101C276.75 170.236 251.768 152.05 238.58 155.656C223.586 159.757 215.676 172.468 215.801 186.915C208.514 183.316 195.259 178.445 175.039 178.499C154.818 178.553 150.193 200.434 149.251 207.353C142.705 202.609 140.417 169.627 168.747 158.084Z" fill="#DADDE7"/>
<path opacity="0.7" fill-rule="evenodd" clip-rule="evenodd" d="M287.042 219.375H268.552C268.81 212.474 270.424 205.547 274.187 199.785C276.756 195.839 280.242 192.567 283.947 189.663C289.744 185.123 296.64 181.486 303.993 181.223C308.558 166.992 316.065 153.186 328.003 144.213C335.5 138.582 344.973 135.218 354.256 135.218C359.452 135.218 364.571 136.268 369.26 138.559V139.123C355.899 141.343 344.305 152.971 336.025 163.715C327.563 174.688 322.903 188.801 321.757 202.617C310.249 202.92 299.142 208.092 290.642 215.859C289.401 216.99 288.197 218.164 287.042 219.375Z" fill="#DADDE7"/>
<g opacity="0.5" filter="url(#filter0_f_526_5578)">
<path fill-rule="evenodd" clip-rule="evenodd" d="M76.6222 152.428C75.7508 149.167 75.3151 147.536 75.1547 146.115C74.2095 137.741 78.8348 129.73 86.5591 126.362C87.8701 125.79 89.5001 125.352 92.7601 124.476L189.929 98.3671C193.197 97.4889 194.832 97.0498 196.255 96.8875C204.644 95.931 212.672 100.567 216.038 108.309C216.61 109.623 217.046 111.258 217.92 114.528C218.791 117.789 219.227 119.419 219.388 120.841C220.333 129.214 215.707 137.225 207.983 140.594C206.672 141.165 205.042 141.603 201.782 142.479L104.613 168.588C101.345 169.467 99.7106 169.906 98.2871 170.068C89.8987 171.024 81.8697 166.389 78.5038 158.646C77.9326 157.332 77.4958 155.697 76.6222 152.428Z" fill="#614409" fill-opacity="0.623634"/>
</g>
<path fill-rule="evenodd" clip-rule="evenodd" d="M165.469 73.4743C177.054 71.6628 189.444 74.0576 199.12 80.89C213.754 91.2231 222.13 79.9063 233.628 88.0248C245.127 96.1445 222.115 124.8 193.581 135.98C168.762 145.705 92.9083 151.169 62.5958 151.127C55.8725 151.117 49.9257 146.554 48.2855 139.981C47.3365 136.178 46.569 129.096 48.2312 126.702C49.1763 125.342 51.0047 125.279 52.8451 125.213C54.2201 125.165 55.6017 125.115 56.6259 124.521C62.3647 121.201 68.2443 118.116 74.1278 115.061C89.893 106.874 105.853 99.0612 121.911 91.474C133.754 85.878 145.77 79.2362 158.209 75.2028C160.57 74.4369 163.001 73.8601 165.469 73.4743Z" fill="#FF4A3C"/>
<path fill-rule="evenodd" clip-rule="evenodd" d="M56.6259 124.521C62.3647 121.201 68.2443 118.116 74.1278 115.061C76.4447 113.857 78.7678 112.665 81.0917 111.477C76.8689 118.841 66.6905 139.419 82.333 143.221C101.456 147.87 185.552 136.371 218.769 119.163C220.866 118.077 222.829 116.763 224.664 115.253C216.764 123.372 205.668 131.243 193.581 135.98C168.762 145.704 92.9083 151.169 62.5958 151.127C55.8725 151.117 49.9257 146.554 48.2855 139.981C47.3365 136.178 46.569 129.096 48.2312 126.702C49.1763 125.342 51.0047 125.279 52.8451 125.213C54.2201 125.165 55.6017 125.115 56.6259 124.521Z" fill="#8F2018"/>
<path fill-rule="evenodd" clip-rule="evenodd" d="M48.6699 141.257L49.1666 141.313C52.8681 141.083 88.3071 138.823 123.165 134.693C127.579 136.977 132.134 138.794 136.787 140.318C103.661 144.78 66.8036 147.438 53.9206 148.29C51.5419 146.565 49.6741 144.143 48.6699 141.257Z" fill="#8F2018"/>
<path fill-rule="evenodd" clip-rule="evenodd" d="M90.3799 105.327C87.4944 105.17 83.128 104.413 77.3569 101.965C66.0927 97.1867 53.3382 84.0589 42.8185 85.9138C32.2988 87.7687 19.7041 93.1915 15.0223 99.9359C11.3307 105.251 21.0003 110.792 25.5064 111.798C36.2985 114.208 43.9271 119.516 48.2312 126.702C49.0202 128.019 50.5849 128.634 52.0356 128.167C60.1466 125.551 82.6555 117.727 91.6771 108.773C92.9152 107.543 92.1187 105.422 90.3799 105.327Z" fill="white"/>
<path fill-rule="evenodd" clip-rule="evenodd" d="M51.5973 128.275C50.3009 128.5 48.9866 127.908 48.2685 126.763C48.988 127.908 50.3009 128.5 51.5973 128.275Z" fill="#9DAD84"/>
<path fill-rule="evenodd" clip-rule="evenodd" d="M57.8861 126.24C58.0204 126.216 51.8751 128.216 52.009 128.175C52.0182 128.172 52.0277 128.17 52.0356 128.167C52.0463 128.164 52.0566 128.159 52.0672 128.156C52.0713 128.155 52.0754 128.154 52.0806 128.152C52.0871 128.15 52.0939 128.148 52.1004 128.146C52.1056 128.143 52.111 128.142 52.1162 128.14C58.5881 126.05 73.9625 120.724 84.5515 114.169C65.2883 110.84 42.6381 89.3337 45.0968 85.7447C44.3267 85.7325 43.566 85.782 42.8185 85.9138C32.2988 87.7687 57.8848 126.24 57.8861 126.24Z" fill="#EBEFF3"/>
<path fill-rule="evenodd" clip-rule="evenodd" d="M160.896 113.236C157.618 110.921 145.619 94.8283 149.449 93.2985C155.115 91.0363 170.851 81.5969 181.247 73.6009C188.396 73.2132 194.994 76.1963 200.727 80.2456C201.7 80.9313 202.493 81.4781 203.211 82.0057C206.483 84.408 207.202 89.0482 204.744 92.2747C202.35 95.4151 198.478 98.867 192.66 103.081C175.086 115.808 164.174 115.549 160.896 113.236Z" fill="#0988A3"/>
<path fill-rule="evenodd" clip-rule="evenodd" d="M160.896 113.236C157.618 110.921 145.619 94.8283 149.449 93.2985C155.115 91.0363 170.851 81.5969 181.247 73.6009C188.396 73.2132 194.994 76.1963 200.727 80.2456C201.7 80.9313 202.493 81.4781 203.211 82.0057C206.483 84.408 207.202 89.0482 204.744 92.2747C202.35 95.4151 198.478 98.867 192.66 103.081C175.086 115.808 164.174 115.549 160.896 113.236Z" fill="white"/>
<path fill-rule="evenodd" clip-rule="evenodd" d="M132.417 114.725L137.251 113.195C140.691 112.106 142.613 108.378 141.523 104.91L139.991 100.036C138.901 96.5685 135.195 94.6221 131.755 95.7107L126.922 97.2398C123.481 98.33 121.56 102.057 122.649 105.525L124.181 110.4C125.273 113.867 128.977 115.814 132.417 114.725Z" fill="white"/>
<path fill-rule="evenodd" clip-rule="evenodd" d="M111.17 121.245L115.129 119.992C117.946 119.1 119.52 116.046 118.629 113.206L117.374 109.214C116.481 106.374 113.446 104.781 110.629 105.672L106.67 106.926C103.854 107.817 102.28 110.871 103.172 113.711L104.426 117.703C105.32 120.543 108.354 122.137 111.17 121.245Z" fill="white"/>
<path fill-rule="evenodd" clip-rule="evenodd" d="M92.3111 127.592L95.6474 126.537C98.0216 125.786 99.3485 123.211 98.5962 120.817L97.5387 117.453C96.7864 115.06 94.2287 113.716 91.8545 114.467L88.517 115.524C86.1428 116.275 84.8171 118.848 85.5693 121.242L86.6257 124.607C87.378 127.001 89.9368 128.343 92.3111 127.592Z" fill="white"/>
<path fill-rule="evenodd" clip-rule="evenodd" d="M134.117 140.378C130.381 140.799 127.948 146.746 128.678 153.691C129.409 160.636 133.03 165.952 136.771 165.594C136.111 165.686 135.444 165.771 134.767 165.843C119.998 167.381 107.428 162.965 106.693 155.98C105.957 148.995 117.335 142.087 132.106 140.548C132.782 140.477 133.452 140.424 134.117 140.378Z" fill="#FF4A3C"/>
<path fill-rule="evenodd" clip-rule="evenodd" d="M132.106 140.548C132.782 140.477 133.452 140.424 134.117 140.378C130.383 140.798 127.952 146.737 128.677 153.674C124.118 156.802 119.325 160.933 118.353 164.957C111.672 163.319 107.127 160.097 106.693 155.98C105.957 148.995 117.335 142.087 132.106 140.548Z" fill="#8F2018"/>
<path fill-rule="evenodd" clip-rule="evenodd" d="M128.678 153.691C127.948 146.746 130.381 140.799 134.117 140.378L134.219 140.371C137.949 140.054 141.545 145.354 142.274 152.274C143.002 159.195 140.587 165.121 136.874 165.58L136.771 165.594C133.03 165.952 129.409 160.636 128.678 153.691Z" fill="#FF4A3C"/>
<path fill-rule="evenodd" clip-rule="evenodd" d="M137.571 159.714C136.843 152.793 133.247 147.494 129.517 147.81L129.415 147.817C129.211 147.84 129.011 147.887 128.813 147.943C129.498 143.732 131.481 140.675 134.117 140.378L134.219 140.372C137.949 140.054 141.545 145.354 142.274 152.274C142.964 158.836 140.827 164.495 137.438 165.456C137.722 163.703 137.787 161.754 137.571 159.714Z" fill="#FF4A3C"/>
<path fill-rule="evenodd" clip-rule="evenodd" d="M128.678 153.691C128.16 148.767 129.237 144.356 131.236 142.049C133.906 143.679 136.12 147.998 136.674 153.261C137.193 158.189 136.113 162.599 134.111 164.904C131.443 163.272 129.232 158.951 128.678 153.691Z" fill="white"/>
<path fill-rule="evenodd" clip-rule="evenodd" d="M136.636 162.335C139.192 161.884 140.845 157.462 140.32 152.477C139.762 147.173 137.008 143.152 134.316 143.627C131.76 144.077 130.108 148.501 130.632 153.486C131.175 158.641 133.844 162.827 136.636 162.335ZM128.678 153.691C127.962 146.89 130.282 141.047 133.887 140.412C137.717 139.736 141.522 145.128 142.274 152.274C142.99 159.076 140.671 164.916 137.066 165.551C133.195 166.234 129.423 160.77 128.678 153.691Z" fill="#8F2018"/>
<path fill-rule="evenodd" clip-rule="evenodd" d="M76.8273 139.358C76.8273 139.358 54.8785 157.03 43.5698 157.196C32.2617 157.364 48.8177 136.867 48.8177 136.867C48.8177 136.867 79.694 127.937 76.8273 139.358Z" fill="white"/>
<path fill-rule="evenodd" clip-rule="evenodd" d="M43.5698 157.196C38.6642 157.268 39.0028 153.453 40.9602 149.107C40.3595 151.032 40.1996 153.775 43.7902 154.408C48.8867 155.307 69.7313 137.759 73.8694 134.222C76.2277 135.014 77.5244 136.585 76.8273 139.358C76.8273 139.358 54.8785 157.03 43.5698 157.196Z" fill="#EBEFF3"/>
<path fill-rule="evenodd" clip-rule="evenodd" d="M155.275 121.725L155.302 114.955L134.732 128.627C134.732 128.627 83.0928 169.093 77.9646 169.997C72.8377 170.901 68.4435 170.138 68.4435 170.138C68.4435 170.138 67.6029 172.717 68.2747 176.526C68.9464 180.336 74.8127 183.261 92.8596 173.725C108.887 165.255 145.495 132.456 153.478 125.23C154.482 124.321 155.118 123.076 155.275 121.725Z" fill="white"/>
<path fill-rule="evenodd" clip-rule="evenodd" d="M155.302 114.955C155.302 114.955 118.587 155.865 89.9756 168.904C61.3627 181.944 65.5039 170.832 76.1359 158.468C85.4894 147.588 103.49 130.612 107.68 126.688C108.279 126.13 108.956 125.674 109.699 125.33C116.175 122.331 148.565 107.851 155.302 114.955Z" fill="#EBEFF3"/>
<path fill-rule="evenodd" clip-rule="evenodd" d="M140.304 120.215C140.541 118.586 138.689 118.323 135.808 118.831C129.166 120.002 117.064 125.268 112.546 127.301C111.361 127.834 110.38 128.723 109.721 129.849C109.323 130.527 108.849 131.366 108.359 132.297C108.359 132.297 106.987 134.842 106.248 137.503C105.509 140.164 105.441 142.802 105.441 142.802L105.3 142.8C105.701 144.316 107.02 145.149 109.837 144.653C120.881 142.705 140.304 120.215 140.304 120.215Z" fill="white"/>
<path fill-rule="evenodd" clip-rule="evenodd" d="M214.914 85.4946C221.324 85.1469 226.951 83.3101 233.628 88.0249C239.433 92.1236 236.439 101.455 228.386 111.13C227.912 111.005 227.435 110.875 226.954 110.724C214.163 106.759 213.538 94.3603 214.914 85.4946Z" fill="#8F2018"/>
<path fill-rule="evenodd" clip-rule="evenodd" d="M217.338 85.3053C222.78 84.7842 227.804 83.9125 233.628 88.0248C236.402 89.9834 237.162 93.1386 236.327 96.9518C233.368 98.8566 230.023 99.8991 226.446 99.0889C218.207 97.2211 217.114 90.0372 217.338 85.3053Z" fill="#FF4A3C"/>
</g>
<defs>
<filter id="filter0_f_526_5578" x="19.5799" y="41.3102" width="255.382" height="184.335" filterUnits="userSpaceOnUse" color-interpolation-filters="sRGB">
<feFlood flood-opacity="0" result="BackgroundImageFix"/>
<feBlend mode="normal" in="SourceGraphic" in2="BackgroundImageFix" result="shape"/>
<feGaussianBlur stdDeviation="27.7265" result="effect1_foregroundBlur_526_5578"/>
</filter>
</defs>
</svg>
