<svg width="24" height="24" viewBox="0 0 24 24" fill="none" xmlns="http://www.w3.org/2000/svg">
<path d="M17.8218 9.07511L7.06346 3.89505C6.38928 3.57129 5.52563 3.88309 5.21199 4.56003L3.22348 8.86816C2.90984 9.54786 3.20417 10.3646 3.87835 10.6893L14.6367 15.8693C14.8253 15.9604 15.0267 16.0055 15.2346 16.0055C15.7708 16.0055 16.2619 15.6909 16.4873 15.2034L18.4758 10.8953C18.7903 10.2165 18.496 9.39978 17.8218 9.07511Z" fill="white"/>
<path d="M8.78081 19.9999H1.42277C1.16892 19.9999 0.962891 19.7939 0.962891 19.54C0.962891 19.2862 1.16892 19.0801 1.42277 19.0801H8.32093V15.861C8.32093 15.6071 8.52695 15.4011 8.78081 15.4011C9.03466 15.4011 9.24068 15.6071 9.24068 15.861V19.54C9.24068 19.7939 9.03466 19.9999 8.78081 19.9999Z" fill="white"/>
<path d="M22.7832 11.77L21.8634 11.3101C21.7549 11.2558 21.6289 11.2466 21.5121 11.2853L20.2925 11.6918L18.1494 10.8346C17.9149 10.7399 17.6463 10.8548 17.5525 11.0912C17.4633 11.3147 17.5645 11.5612 17.776 11.6679L16.802 13.615C16.5914 13.5102 16.3292 13.5773 16.2051 13.7842C16.0735 14.0022 16.1453 14.2846 16.3633 14.4152L18.5164 15.7074L18.922 16.9261C18.9606 17.0411 19.0443 17.1367 19.1529 17.1919L20.0726 17.6518C20.137 17.684 20.2069 17.7006 20.2787 17.7006C20.3311 17.7006 20.3817 17.6923 20.4323 17.6739C20.55 17.6325 20.6456 17.5442 20.6971 17.4311L22.9965 12.3724C23.0977 12.1471 23.0039 11.8813 22.7832 11.77Z" fill="white"/>
<path fill-rule="evenodd" clip-rule="evenodd" d="M10.3297 12.9347C10.5698 12.8445 10.8328 12.9632 10.9239 13.2005C11.0278 13.4718 11.0802 13.7477 11.0802 14.0218C11.0802 15.2892 10.0492 16.3212 8.78083 16.3212C7.51249 16.3212 6.48145 15.2892 6.48145 14.0218C6.48145 13.0184 7.12895 12.14 8.09286 11.8356C8.33659 11.7601 8.5932 11.8944 8.66954 12.1363C8.70541 12.2522 8.69162 12.3709 8.64287 12.4729L10.0814 13.1664C10.131 13.0643 10.2157 12.9788 10.3297 12.9347ZM8.32101 14.022C8.32101 14.2759 8.52704 14.4819 8.78089 14.4819C9.03474 14.4819 9.24077 14.2759 9.24077 14.022C9.24077 13.7682 9.03474 13.5622 8.78089 13.5622C8.52704 13.5622 8.32101 13.7682 8.32101 14.022Z" fill="white"/>
</svg>
