<svg width="24" height="24" viewBox="0 0 24 24" fill="none" xmlns="http://www.w3.org/2000/svg">
<g clip-path="url(#clip0_487_58)">
<path fill-rule="evenodd" clip-rule="evenodd" d="M20.1238 18.6667C20.5063 18.6662 20.8857 18.7399 21.2434 18.8842L18.4621 6.11183C18.4462 6.03886 18.442 5.96355 18.4496 5.88908L18.6072 4.34333C18.7452 3.01619 18.3074 1.6945 17.4182 0.754C16.966 0.27135 16.3522 0.000357399 15.7123 0.000833333C15.7025 0.000833333 15.6928 0.0005 15.6831 0H5.6471C9.74259 0.474074 8.59117 6.66667 8.59117 6.66667L9.75685 12L10.7733 16.6667L11.2086 18.6667H20.1238ZM4.42775 3.64625e-06H4.40086C3.67723 0.00459713 2.99376 0.355178 2.53886 0.955087C2.08024 1.55526 1.90141 2.34461 2.05253 3.10175L5.6659 21.353C5.9784 22.8944 7.25551 23.9959 8.73486 24H20.1238C21.16 24 22 23.1046 22 22C22 20.8954 21.16 20 20.1238 20H10.7114C10.4203 20.0002 10.1676 19.7862 10.1018 19.484L9.48871 16.6667L8.47242 12L7.19424 6.15125C7.1912 6.13742 7.18862 6.12359 7.18643 6.10959L7.18017 6.06959C7.1708 6.00975 7.16914 5.94882 7.17525 5.8885L7.3316 4.341C7.46871 3.01493 7.0315 1.69452 6.14387 0.754004C5.68805 0.270368 5.07088 -0.000793867 4.42775 3.64625e-06Z" fill="#C2C6D2"/>
</g>
<defs>
<clipPath id="clip0_487_58">
<rect width="24" height="24" fill="white"/>
</clipPath>
</defs>
</svg>
