<svg width="24" height="24" viewBox="0 0 24 24" fill="none" xmlns="http://www.w3.org/2000/svg">
<g clip-path="url(#clip0_487_59)">
<path fill-rule="evenodd" clip-rule="evenodd" d="M21.6002 2.4C22.2629 2.4 22.8002 2.93726 22.8002 3.6V6.012H1.2002V3.6C1.2002 2.93726 1.73745 2.4 2.4002 2.4H6.0002V0H8.4002V2.4H15.6002V0H18.0002V2.4H21.6002ZM21.6002 24H2.4002C1.73745 24 1.2002 23.4627 1.2002 22.8V8.41199H22.8002V22.8C22.8002 23.4627 22.2629 24 21.6002 24ZM18.0001 12H15.6001V14.4H18.0001V12ZM15.6001 16.8H18.0001V19.2H15.6001V16.8ZM13.2002 12H10.8002V14.4H13.2002V12ZM10.8002 16.8H13.2002V19.2H10.8002V16.8ZM8.4001 12H6.0001V14.4H8.4001V12ZM6.0001 16.8H8.4001V19.2H6.0001V16.8Z" fill="white"/>
</g>
<defs>
<clipPath id="clip0_487_59">
<rect width="24" height="24" fill="white"/>
</clipPath>
</defs>
</svg>
