<svg width="24" height="24" viewBox="0 0 24 24" fill="none" xmlns="http://www.w3.org/2000/svg">
<path d="M14.6527 17.9393C14.1158 17.388 14.1158 16.4941 14.6527 15.9428C15.1897 15.3915 16.0603 15.3915 16.5973 15.9428L22.0973 21.5899C22.6342 22.1412 22.6342 23.0351 22.0973 23.5864C21.5603 24.1377 20.6897 24.1377 20.1527 23.5864L14.6527 17.9393Z" fill="white"/>
<path fill-rule="evenodd" clip-rule="evenodd" d="M0.5 9.88235C0.5 15.3402 4.80926 19.7647 10.125 19.7647C15.4407 19.7647 19.75 15.3402 19.75 9.88235C19.75 4.42448 15.4407 0 10.125 0C4.80926 0 0.5 4.42448 0.5 9.88235ZM17 9.88304C17 13.7815 13.922 16.9419 10.125 16.9419C6.32804 16.9419 3.25 13.7815 3.25 9.88304C3.25 5.98456 6.32804 2.82422 10.125 2.82422C13.922 2.82422 17 5.98456 17 9.88304Z" fill="white"/>
</svg>
