<svg width="24" height="24" viewBox="0 0 24 24" fill="none" xmlns="http://www.w3.org/2000/svg">
<path d="M21.1667 10.1667H13.8333V2.83333C13.8333 2.3471 13.6402 1.88079 13.2964 1.53697C12.9525 1.19315 12.4862 1 12 1C11.5138 1 11.0475 1.19315 10.7036 1.53697C10.3598 1.88079 10.1667 2.3471 10.1667 2.83333V10.1667H2.83333C2.3471 10.1667 1.88079 10.3598 1.53697 10.7036C1.19315 11.0475 1 11.5138 1 12C1 12.4862 1.19315 12.9525 1.53697 13.2964C1.88079 13.6402 2.3471 13.8333 2.83333 13.8333H10.1667V21.1667C10.1667 21.6529 10.3598 22.1192 10.7036 22.463C11.0475 22.8068 11.5138 23 12 23C12.4862 23 12.9525 22.8068 13.2964 22.463C13.6402 22.1192 13.8333 21.6529 13.8333 21.1667V13.8333H21.1667C21.6529 13.8333 22.1192 13.6402 22.463 13.2964C22.8068 12.9525 23 12.4862 23 12C23 11.5138 22.8068 11.0475 22.463 10.7036C22.1192 10.3598 21.6529 10.1667 21.1667 10.1667Z" fill="white"/>
</svg>
