<svg width="16" height="16" viewBox="0 0 16 16" fill="none" xmlns="http://www.w3.org/2000/svg">
<g clip-path="url(#clip0_487_69)">
<path d="M13.0503 1.29467e-05C12.6605 -0.00114202 12.2745 0.0749889 11.9143 0.224001C11.5542 0.373014 11.2272 0.591951 10.9523 0.868147L5.57295 6.25006C5.11521 6.70484 4.75231 7.24597 4.50527 7.84206C4.25823 8.43815 4.13197 9.07734 4.13381 9.72259V11.8852H6.29639C6.94164 11.887 7.58084 11.7608 8.17693 11.5137C8.77302 11.2667 9.31414 10.9038 9.76893 10.446L15.1508 5.06671C15.567 4.65187 15.8505 4.12278 15.9655 3.54656C16.0805 2.97034 16.0217 2.37296 15.7967 1.83018C15.5716 1.2874 15.1905 0.823678 14.7015 0.497844C14.2126 0.172009 13.6378 -0.00126019 13.0503 1.29467e-05ZM14.0528 3.96862L8.67342 9.35054C8.36203 9.6637 7.99158 9.91196 7.58355 10.0809C7.17553 10.2499 6.73802 10.3362 6.29639 10.3349H5.68405V9.72259C5.68308 9.2814 5.76958 8.84438 5.93854 8.43682C6.10751 8.02926 6.35559 7.65924 6.66845 7.34814L12.0504 1.96623C12.319 1.71434 12.6751 1.57682 13.0434 1.58276C13.4116 1.58869 13.7631 1.73762 14.0235 1.99803C14.284 2.25845 14.4329 2.60995 14.4388 2.97818C14.4447 3.34642 14.3072 3.70253 14.0553 3.97121L14.0528 3.96862Z" fill="white"/>
<path d="M2.8421 16.0193H11.11C11.8638 16.0193 12.5867 15.7199 13.1197 15.1869C13.6527 14.6539 13.9521 13.931 13.9521 13.1772V10.8518H12.4019V13.1772C12.4019 13.5198 12.2658 13.8484 12.0235 14.0907C11.7813 14.3329 11.4527 14.469 11.11 14.469H2.8421C2.49948 14.469 2.17089 14.3329 1.92862 14.0907C1.68635 13.8484 1.55024 13.5198 1.55024 13.1772V4.90924C1.55024 4.56662 1.68635 4.23803 1.92862 3.99576C2.17089 3.75348 2.49948 3.61738 2.8421 3.61738H5.16746V2.06714H2.8421C2.08833 2.06714 1.36543 2.36657 0.832433 2.89957C0.299435 3.43257 0 4.15547 0 4.90924V13.1772C0 13.931 0.299435 14.6539 0.832433 15.1869C1.36543 15.7199 2.08833 16.0193 2.8421 16.0193Z" fill="white"/>
</g>
<defs>
<clipPath id="clip0_487_69">
<rect width="16" height="16" fill="white"/>
</clipPath>
</defs>
</svg>
