<svg width="24" height="23" viewBox="0 0 24 23" fill="none" xmlns="http://www.w3.org/2000/svg">
<g clip-path="url(#clip0_487_41)">
<path d="M6.66675 4.16669C6.66675 3.47633 7.22639 2.91669 7.91675 2.91669H22.75C23.4404 2.91669 24 3.47633 24 4.16669V5.00001C24 5.69037 23.4404 6.25001 22.75 6.25001H7.91675C7.22639 6.25001 6.66675 5.69037 6.66675 5.00001V4.16669Z" fill="white"/>
<path d="M6.66675 10.8333C6.66675 10.143 7.22639 9.58334 7.91675 9.58334H22.75C23.4404 9.58334 24 10.143 24 10.8333V11.6667C24 12.357 23.4404 12.9167 22.75 12.9167H7.91675C7.22639 12.9167 6.66675 12.357 6.66675 11.6667V10.8333Z" fill="white"/>
<path d="M0 17.5C0 16.8096 0.559644 16.25 1.25 16.25H22.7499C23.4403 16.25 23.9999 16.8096 23.9999 17.5V18.3333C23.9999 19.0237 23.4403 19.5833 22.7499 19.5833H1.25C0.559645 19.5833 0 19.0237 0 18.3333V17.5Z" fill="white"/>
</g>
<defs>
<clipPath id="clip0_487_41">
<rect width="24" height="22.8" fill="white"/>
</clipPath>
</defs>
</svg>
