<svg width="24" height="23" viewBox="0 0 24 23" fill="none" xmlns="http://www.w3.org/2000/svg">
<g clip-path="url(#clip0_487_42)">
<path d="M17.3333 4.16669C17.3333 3.47633 16.7736 2.91669 16.0833 2.91669H1.24988C0.559528 2.91669 -0.000116348 3.47633 -0.000116348 4.16669V5.00001C-0.000116348 5.69037 0.559528 6.25001 1.24988 6.25001H16.0833C16.7736 6.25001 17.3333 5.69037 17.3333 5.00001V4.16669Z" fill="white"/>
<path d="M17.3333 10.8333C17.3333 10.143 16.7736 9.58334 16.0833 9.58334H1.24988C0.559528 9.58334 -0.000116348 10.143 -0.000116348 10.8333V11.6667C-0.000116348 12.357 0.559528 12.9167 1.24988 12.9167H16.0833C16.7736 12.9167 17.3333 12.357 17.3333 11.6667V10.8333Z" fill="white"/>
<path d="M24 17.5C24 16.8096 23.4404 16.25 22.75 16.25H1.24995C0.559597 16.25 -4.57764e-05 16.8096 -4.57764e-05 17.5V18.3333C-4.57764e-05 19.0237 0.559599 19.5833 1.24995 19.5833H22.75C23.4404 19.5833 24 19.0237 24 18.3333V17.5Z" fill="white"/>
</g>
<defs>
<clipPath id="clip0_487_42">
<rect width="24" height="22.8" fill="white"/>
</clipPath>
</defs>
</svg>
