<svg width="24" height="24" viewBox="0 0 24 24" fill="none" xmlns="http://www.w3.org/2000/svg">
<path fill-rule="evenodd" clip-rule="evenodd" d="M3.75 8.5C3.75 3.813 7.563 0 12.25 0C16.937 0 20.75 3.813 20.75 8.5C20.75 16.717 12.91 23.589 12.577 23.878C12.483 23.959 12.367 24 12.25 24C12.133 24 12.017 23.959 11.923 23.878C11.589 23.59 3.75 16.718 3.75 8.5ZM15.75 10.908C16.331 10.701 16.75 10.151 16.75 9.49998H16.751V7.99998C16.751 7.81098 16.644 7.63798 16.475 7.55298L15.66 7.14598L14.953 5.02598C14.748 4.41298 14.176 4.00098 13.53 4.00098H10.971C10.324 4.00098 9.753 4.41298 9.548 5.02598L8.841 7.14598L8.026 7.55298C7.857 7.63798 7.75 7.81098 7.75 7.99998V9.49998C7.75 10.151 8.169 10.701 8.75 10.908V11.5C8.75 11.776 8.974 12 9.25 12C9.526 12 9.75 11.776 9.75 11.5V11H14.75V11.5C14.75 11.776 14.974 12 15.25 12C15.526 12 15.75 11.776 15.75 11.5V10.908Z" fill="white"/>
<path d="M10.25 10H9.25C8.974 10 8.75 9.776 8.75 9.5C8.75 9.224 8.974 9 9.25 9H10.25C10.526 9 10.75 9.224 10.75 9.5C10.75 9.776 10.526 10 10.25 10Z" fill="white"/>
<path d="M15.25 10H14.25C13.974 10 13.75 9.776 13.75 9.5C13.75 9.224 13.974 9 14.25 9H15.25C15.526 9 15.75 9.224 15.75 9.5C15.75 9.776 15.526 10 15.25 10Z" fill="white"/>
<path d="M16.7499 8.50008C16.6979 8.50008 16.6449 8.49208 16.5919 8.47408L15.0919 7.97408C14.8299 7.88708 14.6889 7.60408 14.7759 7.34208C14.8629 7.08008 15.1429 6.93808 15.4079 7.02608L16.9079 7.52608C17.1699 7.61308 17.3109 7.89608 17.2239 8.15808C17.1539 8.36808 16.9589 8.50008 16.7499 8.50008Z" fill="white"/>
<path d="M7.25003 8.50038C7.02603 8.50038 6.82203 8.34938 6.76603 8.12138C6.69903 7.85338 6.86203 7.58238 7.13003 7.51538L9.13003 7.01538C9.39703 6.94738 9.66903 7.11138 9.73603 7.37938C9.80303 7.64738 9.64003 7.91838 9.37203 7.98538L7.37203 8.48538C7.33103 8.49538 7.29003 8.50038 7.25003 8.50038Z" fill="white"/>
<path d="M15.25 8H9.25C8.974 8 8.75 7.776 8.75 7.5C8.75 7.224 8.974 7 9.25 7H15.25C15.526 7 15.75 7.224 15.75 7.5C15.75 7.776 15.526 8 15.25 8Z" fill="white"/>
</svg>
