<svg width="24" height="24" viewBox="0 0 24 24" fill="none" xmlns="http://www.w3.org/2000/svg">
<g clip-path="url(#clip0_487_45)">
<path opacity="0.3" d="M17.0942 0.5H20.444C22.4079 0.5 23.9999 2.0782 23.9999 4.025V20.475C23.9999 22.4218 22.4079 24 20.444 24H17.0942V0.5Z" fill="#328CFF"/>
<path d="M1.68531 0.5H15.909C17.8729 0.5 19.4649 2.0782 19.4649 4.025V20.475C19.4649 22.4218 17.8729 24 15.909 24H1.68531C1.03068 24 0.5 23.4739 0.5 22.825V1.675C0.5 1.02607 1.03068 0.5 1.68531 0.5Z" fill="#328CFF"/>
<path fill-rule="evenodd" clip-rule="evenodd" d="M1.68531 0.5H16.8882C18.852 0.5 20.4441 2.0782 20.4441 4.025V20.475C20.4441 22.4218 18.852 24 16.8882 24H1.68531C1.03068 24 0.5 23.4739 0.5 22.825V1.675C0.5 1.02607 1.03068 0.5 1.68531 0.5ZM10.1165 11.075C11.4257 11.075 12.4871 10.0229 12.4871 8.725C12.4871 7.42713 11.4257 6.375 10.1165 6.375C8.80724 6.375 7.74588 7.42713 7.74588 8.725C7.74588 10.0229 8.80724 11.075 10.1165 11.075ZM4.89571 18.125C4.73056 18.125 4.40317 17.7278 4.41707 17.5369C4.67231 14.032 7.22313 12.25 10.3322 12.25C13.485 12.25 16.0754 13.9341 16.2683 17.5375C16.276 17.6811 16.2683 18.125 15.7737 18.125H4.89571Z" fill="white"/>
</g>
<defs>
<clipPath id="clip0_487_45">
<rect width="24" height="24" fill="white"/>
</clipPath>
</defs>
</svg>
