<svg width="24" height="24" viewBox="0 0 24 24" fill="none" xmlns="http://www.w3.org/2000/svg">
<path d="M23.9409 11.864C23.6923 10.8275 22.7101 10.2057 21.7633 10.4907L15.4793 12.3304L7.85839 4.55575C7.52286 4.21346 7.02648 4.08306 6.56604 4.21626C5.77308 4.44565 5.39067 5.34531 5.77577 6.07545L9.92901 13.9498L4.04734 15.6729L2.13421 14.0356C1.87335 13.8124 1.51728 13.7362 1.18792 13.8332C0.5735 14.0141 0.278358 14.7121 0.576578 15.2789L2.15385 18.2769L3.06509 20L4.95859 19.4429L11.2426 17.6032L16.3906 16.1004L22.6746 14.2607C23.6332 13.9628 24.1894 12.9004 23.9409 11.864Z" fill="white"/>
</svg>
